<svg xmlns="http://www.w3.org/2000/svg" viewBox="0 0 750 1334"><defs><style>.cls-1{fill:none;stroke:#000;}.cls-1,.cls-2{stroke-miterlimit:10;stroke-width:3px;}.cls-2{stroke:#494949;}</style></defs><title>widgetry_phone_black</title><g id="draw_layer"><rect id="outline_phone" class="cls-1" x="114.449" y="74" width="528.101" height="1034.5" rx="12"/><rect id="screen_phone" class="cls-1" x="154.238" y="200.6" width="448.524" height="723.427" rx="12"/><line id="speaker_line" class="cls-2" x1="313.392" y1="149.96" x2="443.608" y2="149.96"/><ellipse id="eye_left" class="cls-2" cx="255.517" cy="632.847" rx="28.937" ry="34.363"/><ellipse id="eye_right" class="cls-2" cx="505.1" cy="632.847" rx="28.937" ry="34.363"/><path id="mouth_ver_0000" class="cls-1" d="M302.616,703.381c-.041,1.2-.076,2.4-.076,3.617,0,47.945,32.389,86.811,72.343,86.811S447.226,754.943,447.226,707c0-1.213-.036-2.416-.077-3.617Z"/><ellipse id="microphone" class="cls-1" cx="378.5" cy="1012.646" rx="47.023" ry="48.831"/></g><g id="widgetry_text"><path d="M104.631,1171.823h9.348l6.611,32.148c1.027,5.244,1.825,10.032,2.509,15.276h.456a139.538,139.538,0,0,1,3.192-15.276l6.839-28.728h9.348l6.612,28.728c1.254,5.244,2.736,10.032,3.42,15.276h.456c.912-5.244,1.482-10.032,2.508-15.276l6.612-32.148h8.664l-11.856,55.4H147.266l-6.384-26.448q-1.368-5.814-2.736-16.416h-.456q-1.368,10.6-2.736,16.416l-6.156,26.448H116.714Z"/><path d="M208.027,1179.461h-25.65v-7.638h35.112v55.4h-9.462Zm-3.762-26.562c0-4.332,3.192-7.295,7.524-7.295s7.524,2.963,7.524,7.295c0,4.447-3.192,7.3-7.524,7.3S204.265,1157.346,204.265,1152.9Z"/><path d="M247.356,1199.639c0-18.012,11.97-29.184,25.08-29.184,6.612,0,11.742,2.622,16.644,7.068h.228l-.456-10.146V1146.06h9.462v81.167h-7.752l-.8-7.3h-.342c-4.56,4.673-11.172,8.664-18.126,8.664C256.933,1228.6,247.356,1218.106,247.356,1199.639Zm41.5,12.768v-27.588c-5.016-4.673-9.69-6.383-14.478-6.383-9.576,0-17.328,8.435-17.328,21.089,0,13.224,6.156,21.089,16.3,21.089C278.82,1220.614,283.95,1217.879,288.852,1212.407Z"/><path d="M317.124,1237.372c0-4.445,3.191-8.892,9.119-12.311v-.457a10.037,10.037,0,0,1-5.7-9.12c0-3.533,2.395-7.523,6.612-10.373v-.456a17.664,17.664,0,0,1-6.84-14.364c0-12.084,10.032-19.836,21.774-19.836a22.512,22.512,0,0,1,8.208,1.368H373.21v7.638H358.847a16.738,16.738,0,0,1,4.674,11.172c0,11.856-9.462,19.038-21.432,19.038a23.939,23.939,0,0,1-9.348-2.052c-2.736,1.71-4.332,3.762-4.332,6.384,0,4.332,4.218,6.384,11.514,6.384h12.426c14.25,0,21.089,3.647,21.089,13,0,10.373-11.969,19.379-30.779,19.379C326.471,1252.762,317.124,1247.177,317.124,1237.372Zm47.081-2.508c0-5.244-4.218-6.725-12.654-6.725h-10.83a31.4,31.4,0,0,1-8.436-.912c-5.243,2.849-7.068,6.042-7.068,9.233,0,5.814,6.27,9.462,18.126,9.462C356.225,1245.922,364.205,1240.564,364.205,1234.864Zm-9.348-44.573a12.77,12.77,0,1,0-25.536,0c0,7.98,5.814,13.11,12.768,13.11C349.157,1203.4,354.857,1198.271,354.857,1190.291Z"/><path d="M385.066,1199.411c0-18.012,13.452-28.956,28.272-28.956,15.96,0,25.308,10.374,25.308,25.992a38.26,38.26,0,0,1-.457,5.7H391.336v-7.295H432.6l-2.394,2.622c0-13.11-6.5-19.608-16.644-19.608-10.259,0-19.152,7.752-19.152,21.546,0,14.363,9.348,21.659,21.66,21.659a30.182,30.182,0,0,0,16.871-5.243l3.42,6.155a37.949,37.949,0,0,1-21.431,6.613C398.29,1228.6,385.066,1217.879,385.066,1199.411Z"/><path d="M469.2,1205.681v-26.22H453.465v-7.067l16.074-.571,1.254-17.783h7.865v17.783h27.133v7.638H478.658V1205.8c0,9.918,3.307,15.048,14.023,15.048a36.443,36.443,0,0,0,13.223-2.508l2.053,6.954a48.363,48.363,0,0,1-17.328,3.306C474.441,1228.6,469.2,1219.36,469.2,1205.681Z"/><path d="M530.643,1171.823h7.865l.912,13.111h.228c5.814-9.006,14.478-14.479,24.738-14.479a23.3,23.3,0,0,1,10.944,2.28l-2.166,8.094a27.785,27.785,0,0,0-10.26-1.824c-8.322,0-16.188,4.219-22.8,15.846v32.376h-9.461Z"/><path d="M590.148,1249.912l1.939-7.523a17.765,17.765,0,0,0,5.017.8c7.751,0,12.425-4.9,15.161-11.743l1.6-4.1L588.1,1171.823h9.575l13.452,30.552c2.166,4.9,4.56,10.716,6.84,16.073h.456c1.937-5.243,4.1-11.057,5.928-16.073l11.969-30.552h9.12l-24.509,59.963c-4.1,10.944-10.83,19.266-23.484,19.266A23.314,23.314,0,0,1,590.148,1249.912Z"/></g></svg>